# AST/ASF file generated using VICON BodyLanguage
# -----------------------------------------------
:version 1.10
:name VICON
:units
  mass 1.0
  length 0.45
  angle deg
:documentation
   .ast/.asf automatically generated from VICON data using
   VICON BodyBuilder and BodyLanguage model FoxedUp or BRILLIANT.MOD
:root
   order TX TY TZ RX RY RZ
   axis XYZ
   position 0 0 0  
   orientation 0 0 0 
:bonedata
  begin
     id 1 
     name lhipjoint
     direction 0.682418 -0.694059 0.22932 
     length 2.25561 
     axis 0 0 0  XYZ
  end
  begin
     id 2 
     name lfemur
     direction 0.34202 -0.939693 0  
     length 6.96448  
     axis 0 0 20  XYZ
    dof rx ry rz
    limits (-160.0 20.0)
           (-70.0 70.0)
           (-60.0 70.0)
  end
  begin
     id 3 
     name ltibia
     direction 0.34202 -0.939693 0   
     length 6.88553   
     axis 0 0 20   XYZ
    dof rx
    limits (-10.0 170.0)
  end
  begin
     id 4 
     name lfoot
     direction 0.0723587 -0.198804 0.977364   
     length 1.88518   
     axis -90 7.62852e-016 20   XYZ
    dof rx rz
    limits (-45.0 90.0)
           (-70.0 20.0)
  end
  begin
     id 5 
     name ltoes
     direction 1.53558e-011 -4.21962e-011 1   
     length 0.952124   
     axis -90 7.62852e-016 20   XYZ
    dof rx
    limits (-90.0 20.0)
  end
  begin
     id 6 
     name rhipjoint
     direction -0.657603 -0.71533 0.236348   
     length 2.18854  
     axis 0 0 0  XYZ 
  end
  begin
     id 7 
     name rfemur
     direction -0.34202 -0.939693 0   
     length 6.86686   
     axis 0 0 -20   XYZ
    dof rx ry rz
    limits (-160.0 20.0)
           (-70.0 70.0)
           (-70.0 60.0)
  end
  begin
     id 8 
     name rtibia
     direction -0.34202 -0.939693 0   
     length 6.59503   
     axis 0 0 -20   XYZ
    dof rx
    limits (-10.0 170.0)
 end
 begin
     id 9 
     name rfoot
     direction -0.101977 -0.280179 0.954516   
     length 1.93723  
     axis -90 -7.62852e-016 -20   XYZ
    dof rx rz
    limits (-45.0 90.0)
           (-20.0 70.0)
  end
  begin
     id 10 
     name rtoes
     direction -1.53564e-011 -4.21897e-011 1   
     length 0.970315   
     axis -90 -7.62852e-016 -20   XYZ
    dof rx
    limits (-90.0 20.0)
  end
  begin
     id 11 
     name lowerback
     direction -0.0339559 0.999421 -0.00235966   
     length 1.88543   
     axis 0 0 0   XYZ
    dof rx ry rz
    limits (-20.0 45.0)
           (-30.0 30.0)
           (-30.0 30.0)
  end
  begin
     id 12 
     name upperback
     direction 0.00401003 0.999739 0.0224689   
     length 1.8856   
     axis 0 0 0   XYZ
    dof rx ry rz
    limits (-20.0 45.0)
           (-30.0 30.0)
           (-30.0 30.0)
  end
  begin
     id 13 
     name thorax
     direction 0.0198619 0.999546 0.0226536   
     length 1.88352   
     axis 0 0 0   XYZ
    dof rx ry rz
    limits (-20.0 45.0)
           (-30.0 30.0)
           (-30.0 30.0)
  end
  begin
     id 14 
     name lowerneck
     direction -0.0461848 0.998632 0.0245198   
     length 1.34895   
     axis 0 0 0   XYZ
    dof rx ry rz
    limits (-20.0 45.0)
           (-30.0 30.0)
           (-30.0 30.0)
  end
  begin
     id 15 
     name upperneck
     direction -0.0180627 0.994724 -0.100984   
     length 1.35214   
     axis 0 0 0   XYZ
    dof rx ry rz
    limits (-20.0 45.0)
           (-30.0 30.0)
           (-30.0 30.0)
  end
  begin
     id 16
     name head
     direction -0.00374772 0.999293 -0.037403  
     length 1.3568  
     axis 0 0 0   XYZ
    dof rx ry rz
    limits (-20.0 45.0)
           (-30.0 30.0)
           (-30.0 30.0)
  end
  begin
     id 17 
     name lclavicle
     direction 0.971773 0.191119 0.138311  
     length 2.84954  
     axis 0 0 0   XYZ
    dof ry rz
    limits (-20.0 10.0)
           (0.0 20.0)
  end
  begin
     id 18 
     name lhumerus
     direction 1 -4.4897e-011 -2.43761e-027   
     length 4.40919   
     axis 180 -30 -90   XYZ
    dof rx ry rz
    limits (-60.0 90.0)
           (-90.0 90.0)
           (-90.0 90.0)
  end
  begin
     id 19
     name lradius
     direction 1 -4.4896e-011 -9.1621e-027   
     length 3.03857   
     axis 180 -30 -90   XYZ
    dof rx
    limits (-10.0 170.0)
  end
  begin
     id 20
     name lwrist
     direction 1 -4.4896e-011 -1.41363e-026   
     length 1.51928   
     axis 1.07133e-014 90 90   XYZ
    dof ry
    limits (-180.0 0.0)
 end
  begin
     id 21 
     name lhand
     direction 1 -4.48978e-011 -2.82725e-026   
     length 0.523208   
     axis 1.80403e-014 90 90   XYZ
    dof rx rz
    limits (-90.0 90.0)
           (-45.0 45.0)
  end
  begin
     id 22 
     name lfingers
     direction 1 -4.48977e-011 -5.6545e-026   
     length 0.421824   
     axis 3.60806e-014 90 90   XYZ
    dof rx
    limits (0.0 90.0)
  end
  begin
     id 23
     name lthumb
     direction 0.707107 -6.34962e-011 0.707107   
     length 0.605657   
     axis -90 45 2.85299e-015   XYZ
    dof rx rz
    limits (-45.0 45.0)
           (-45.0 45.0)
  end
  begin
     id 24 
     name rclavicle
     direction -0.957247 0.24311 0.156766   
     length 3.12406  
     axis 0 0 0   XYZ 
    dof ry rz
    limits (-10.0 20.0)
           (-20.0 0.0)
  end
  begin
     id 25 
     name rhumerus
     direction -1 -4.48964e-011 -1.70632e-027  
     length 4.61969   
     axis 180 30 90   XYZ
    dof rx ry rz
    limits (-90.0 60.0)
           (-90.0 90.0)
           (-90.0 90.0)
  end
  begin
     id 26 
     name rradius
     direction -1 -4.48966e-011 -6.60395e-027   
     length 3.09382   
     axis 180 30 90   XYZ
    dof rx
    limits (-10.0 170.0)
  end
  begin
     id 27 
     name rwrist
     direction -1 -4.48963e-011 -1.41363e-026   
     length 1.54691   
     axis 1.07133e-014 -90 -90   XYZ
    dof ry
    limits (-180.0 0.0)
  end
  begin
     id 28
     name rhand
     direction -1 -4.49013e-011 -2.82725e-026   
     length 0.500896   
     axis 1.80403e-014 -90 -90   XYZ
    dof rx rz
    limits (-90.0 90.0)
           (-45.0 45.0)
  end
  begin
     id 29
     name rfingers
     direction -1 -4.48902e-011 -5.6545e-026   
     length 0.403835   
     axis 3.60806e-014 -90 -90   XYZ
    dof rx
    limits (0.0 90.0)
  end
  begin
     id 30
     name rthumb
     direction -0.707107 -6.34953e-011 0.707107   
     length 0.579829   
     axis -90 -45 -2.85299e-015   XYZ
    dof rx rz
    limits (-45.0 45.0)
           (-45.0 45.0)
  end
:hierarchy
  begin
    root lhipjoint rhipjoint lowerback
    lhipjoint lfemur
    lfemur ltibia
    ltibia lfoot
    lfoot ltoes
    rhipjoint rfemur
    rfemur rtibia
    rtibia rfoot
    rfoot rtoes
    lowerback upperback
    upperback thorax
    thorax lowerneck lclavicle rclavicle
    lowerneck upperneck
    upperneck head
    lclavicle lhumerus
    lhumerus lradius
    lradius lwrist
    lwrist lhand lthumb
    lhand lfingers
    rclavicle rhumerus
    rhumerus rradius
    rradius rwrist
    rwrist rhand rthumb
    rhand rfingers
  end

#!OML:ASF E:\madness\Project 1\Capture day 1\Session 1\Female1.ASF
:FULLY-SPECIFIED
:DEGREES
129
root 2.25545 16.1101 -1.86902 -1.00232 -72.8844 13.6183
lowerback 5.86615 3.0353 -3.75337
upperback 1.38382 3.69733 -2.76693
thorax -1.91198 1.83266 -1.02441
lowerneck -0.523977 3.73889 -1.75863
upperneck -6.3776 4.65215 -5.10026
head -1.81847 2.44314 -1.36817
rclavicle -1.39646e-014 -1.78906e-014
rhumerus -11.8906 13.6287 -81.2283
rradius 134.526
rwrist -6.37543
rhand -13.7793 -41.7013
rfingers 7.12502
rthumb 12.3419 -71.317
lclavicle -1.39646e-014 -1.78906e-014
lhumerus -10.8792 -32.2374 92.849
lradius 129.281
lwrist -3.6198
lhand -33.5076 -24.6042
lfingers 7.12502
lthumb -6.70421 5.26969
rfemur -23.5315 -1.83321 17.5776
rtibia 32.0977
rfoot -20.9454 -20.1769
rtoes 19.709
lfemur -25.9588 -18.3687 -10.0768
ltibia 22.099
lfoot -6.48924 8.62466
ltoes -11.0144
130
root 2.27511 16.0906 -1.89454 -0.452032 -72.7637 13.1469
lowerback 6.06311 3.06067 -3.65591
upperback 1.47328 3.72918 -2.7186
thorax -1.92678 1.84726 -1.03938
lowerneck -0.4639 3.73208 -1.81473
upperneck -6.58218 4.63438 -5.02082
head -1.89864 2.43894 -1.3397
rclavicle 9.88954e-015 -1.00386e-014
rhumerus -10.8783 13.9792 -80.8269
rradius 134.716
rwrist -6.39555
rhand -13.2664 -41.3863
rfingers 7.12502
rthumb 12.8364 -70.9716
lclavicle 9.88954e-015 -1.00386e-014
lhumerus -9.98166 -32.3489 92.4321
lradius 129.764
lwrist -3.37494
lhand -33.4986 -24.5684
lfingers 7.12502
lthumb -6.69558 5.30576
rfemur -24.0161 -2.07323 17.8362
rtibia 32.6603
rfoot -21.0519 -20.0903
rtoes 19.2934
lfemur -26.5913 -18.2328 -9.80611
ltibia 22.8331
lfoot -7.69817 8.48741
ltoes -9.91461
131
root 2.29945 16.071 -1.91547 0.231586 -72.622 12.4699
lowerback 6.30728 3.06727 -3.44031
upperback 1.61219 3.74343 -2.65142
thorax -1.91028 1.85208 -1.09997
lowerneck -0.488621 3.69591 -1.63202
upperneck -6.76249 4.56886 -5.21341
head -1.94608 2.40862 -1.43425
rclavicle 2.18663e-015 8.05078e-015
rhumerus -9.80851 14.33 -80.4
rradius 134.915
rwrist -6.47022
rhand -13.6062 -41.2215
rfingers 7.12502
rthumb 12.5088 -70.8271
lclavicle 2.18663e-015 8.05078e-015
lhumerus -9.06587 -32.4707 92.0472
lradius 130.159
lwrist -3.71593
lhand -33.9001 -24.2689
lfingers 7.12502
lthumb -7.08318 5.59262
rfemur -24.4435 -2.49895 18.1638
rtibia 33.2396
rfoot -21.1054 -19.8632
rtoes 18.737
lfemur -27.172 -18.0859 -9.53129
ltibia 23.6375
lfoot -7.09586 8.36533
ltoes -11.9624
132
root 2.32671 16.0497 -1.93872 0.972541 -72.5091 11.7716
lowerback 6.48846 3.06852 -3.34855
upperback 1.76641 3.74959 -2.49894
thorax -1.85634 1.85315 -0.999512
lowerneck -0.421576 3.6384 -1.39359
upperneck -7.0554 4.45471 -5.58188
head -2.04366 2.3593 -1.59964
rclavicle 2.73329e-014 6.4605e-015
rhumerus -8.61813 14.6995 -79.7594
rradius 135.085
rwrist -6.57444
rhand -14.6297 -41.4346
rfingers 7.12502
rthumb 11.5219 -71.0979
lclavicle 2.73329e-014 6.4605e-015
lhumerus -8.13742 -32.6977 91.7827
lradius 130.325
lwrist -5.00611
lhand -35.1934 -23.9333
lfingers 7.12502
lthumb -8.33147 5.88244
rfemur -24.9447 -2.91869 18.5214
rtibia 33.8208
rfoot -21.0636 -19.6614
rtoes 18.1935
lfemur -27.8223 -17.8825 -9.22293
ltibia 24.4435
lfoot -8.2373 8.2136
ltoes -10.2943
133
root 2.35981 16.0283 -1.96074 1.42828 -72.4135 11.3941
lowerback 6.81291 3.04021 -3.28745
upperback 1.85066 3.70302 -2.38699
thorax -1.9529 1.82931 -0.930101
lowerneck -0.450953 3.61348 -1.2302
upperneck -7.17425 4.39819 -5.89071
head -2.06953 2.33478 -1.72815
rclavicle -2.16427e-014 -6.70898e-015
rhumerus -7.42769 15.1253 -79.1462
rradius 135.162
rwrist -6.51444
rhand -15.1778 -41.5813
rfingers 7.12502
rthumb 10.9933 -71.2735
lclavicle -2.16427e-014 -6.70898e-015
lhumerus -6.88571 -32.5484 91.3183
lradius 130.98
lwrist -4.21611
lhand -34.3628 -24.341
lfingers 7.12502
lthumb -7.52973 5.50501
rfemur -25.4873 -3.37674 18.7731
rtibia 34.4158
rfoot -21.0836 -19.3658
rtoes 18.0095
lfemur -28.4831 -17.7109 -9.01251
ltibia 25.1993
lfoot -7.94928 8.04765
ltoes -11.7068
134
root 2.38925 16.008 -1.98157 1.72695 -72.3901 11.1226
lowerback 7.29176 3.05814 -3.08661
upperback 1.86552 3.71449 -2.39577
thorax -2.19036 1.83487 -1.07872
lowerneck -0.529119 3.53549 -1.32956
upperneck -7.12707 4.30458 -5.76244
head -2.04694 2.28579 -1.66537
rclavicle -6.36359e-014 2.38542e-014
rhumerus -6.30547 15.3934 -78.6716
rradius 135.178
rwrist -6.30623
rhand -14.5549 -41.0878
rfingers 7.12502
rthumb 11.594 -70.747
lclavicle -6.36359e-014 2.38542e-014
lhumerus -5.8106 -32.6524 90.7784
lradius 131.472
lwrist -4.37321
lhand -34.175 -24.0894
lfingers 7.12502
lthumb -7.34849 5.76294
rfemur -25.9757 -3.75503 18.9814
rtibia 35.0133
rfoot -21.2212 -19.0452
rtoes 17.8534
lfemur -29.0666 -17.5939 -8.82612
ltibia 25.9143
lfoot -8.26741 8.04575
ltoes -11.3621
